<svg class="springone-logo" xmlns="http://www.w3.org/2000/svg" viewBox="0 0 307.56 85.15"><g fill="#fff" data-name="Layer 2"><path d="M265 0H42.57a42.58 42.58 0 000 85.15H265A42.58 42.58 0 10265 0zm39.35 42.57A39.39 39.39 0 01265 81.92H42.57a39.35 39.35 0 010-78.69H265a39.39 39.39 0 0139.33 39.34z"/><path d="M50.2 38.12c-6.53-1.55-8.07-2.7-8.07-5.32v-.09c0-2.22 2-4 5.5-4a14.1 14.1 0 017.79 2.56 2.84 2.84 0 001.54.43 2.76 2.76 0 002.81-2.75 2.69 2.69 0 00-1.31-2.37 18.61 18.61 0 00-10.73-3.14c-6.72 0-11.55 4-11.55 9.81v.1c0 6.23 4.06 8.36 11.26 10.1 6.28 1.45 7.64 2.75 7.64 5.17v.1c0 2.51-2.32 4.25-6 4.25a14.71 14.71 0 01-9.48-3.48A2.81 2.81 0 1036.23 54a21 21 0 0012.71 4.26C56 58.23 61 54.46 61 48.13V48c0-5.58-3.65-8.14-10.8-9.88zM79.48 31.69a10.23 10.23 0 00-8.7 4.79v-1.6a2.93 2.93 0 00-2.94-3 2.89 2.89 0 00-2.9 3v27.94a2.92 2.92 0 005.84 0v-9a10.42 10.42 0 008.7 4.49c6 0 11.84-4.78 11.84-13.24v-.1c0-8.54-5.84-13.28-11.84-13.28zM85.38 45c0 5-3.29 8.17-7.3 8.17s-7.44-3.26-7.44-8.17v-.1c0-4.88 3.48-8.16 7.44-8.16s7.3 3.24 7.3 8.16zM107.22 31.89c-2.56 0-5.07 2.41-6.42 5.6v-2.61a2.94 2.94 0 00-3-3 2.89 2.89 0 00-2.9 3v20.21A2.87 2.87 0 0097.85 58a2.92 2.92 0 003-2.89v-7.56c0-6 2.85-9.24 7-10a2.88 2.88 0 00-.58-5.7zM115.73 22.51c-1.88 0-3.34 1.11-3.34 2.85v.29c0 1.74 1.46 2.9 3.34 2.9s3.33-1.16 3.33-2.9v-.29c0-1.74-1.45-2.85-3.33-2.85zM115.73 31.93a2.89 2.89 0 00-2.9 3v20.16a2.93 2.93 0 005.85 0V34.88a2.94 2.94 0 00-2.95-2.95zM137.72 31.69a9.27 9.27 0 00-8 4.45v-1.26a2.93 2.93 0 00-2.94-3 2.89 2.89 0 00-2.9 3v20.21a2.92 2.92 0 005.84 0V43.34c0-4 2.37-6.33 5.76-6.33s5.52 2.27 5.52 6.23v11.85a2.88 2.88 0 002.91 2.91 2.84 2.84 0 002.9-2.89V41.46c0-5.9-3.34-9.77-9.09-9.77zM173.58 31.93a2.91 2.91 0 00-2.9 2.9V36a11 11 0 00-8.94-4.35 11.51 11.51 0 00-11.6 12v.1a11.46 11.46 0 0011.6 11.93c4.2 0 6.86-1.93 9-4.68v2c0 5.12-2.85 7.83-8.07 7.83a15.65 15.65 0 01-7.83-2 2.26 2.26 0 00-1.07-.24A2.46 2.46 0 00151.3 61a2.4 2.4 0 001.64 2.32 22.07 22.07 0 009.86 2.27c4.59 0 8.17-1.11 10.49-3.43 2.13-2.13 3.24-5.31 3.24-9.62V34.88a2.94 2.94 0 00-2.95-2.95zm-2.8 11.8c0 4.15-3.43 7-7.49 7a6.94 6.94 0 01-7.25-7v-.1a6.9 6.9 0 017.25-7c4.06 0 7.49 2.85 7.49 7zM198.37 23.33a17.33 17.33 0 00-17.73 17.5v.09a17.69 17.69 0 0035.36-.09v-.1a17.17 17.17 0 00-17.63-17.4zm11.41 17.59c0 6.58-4.69 11.89-11.41 11.89s-11.5-5.41-11.5-12v-.1c0-6.57 4.69-11.94 11.41-11.94s11.5 5.46 11.5 12zM233.94 31.69a9.24 9.24 0 00-8 4.45v-1.26a2.94 2.94 0 00-2.95-3 2.89 2.89 0 00-2.9 3v20.21a2.93 2.93 0 005.85 0V43.34c0-4 2.37-6.33 5.75-6.33s5.46 2.27 5.46 6.23v11.85a2.89 2.89 0 002.98 2.91 2.84 2.84 0 002.9-2.89V41.46c-.03-5.9-3.34-9.77-9.09-9.77zM258.73 31.69c-7.29 0-12.46 6-12.46 13.29v.1c0 7.88 5.7 13.24 13.09 13.24a13.1 13.1 0 009.19-3.38 2.56 2.56 0 00.77-1.79 2.3 2.3 0 00-2.32-2.37 2.18 2.18 0 00-1.5.54 9.19 9.19 0 01-6 2.22 7.13 7.13 0 01-7.35-6.48h16a2.74 2.74 0 002.76-2.8c-.04-5.9-4.06-12.57-12.18-12.57zm-6.66 11.51c.53-4 3-6.72 6.62-6.72 3.86 0 6.09 3 6.47 6.72z"/></g></svg>